<?xml version="1.0" standalone="no"?><!DOCTYPE svg PUBLIC "-//W3C//DTD SVG 1.1//EN" "http://www.w3.org/Graphics/SVG/1.1/DTD/svg11.dtd"><svg t="1706683842374" class="icon" viewBox="0 0 1024 1024" version="1.1" xmlns="http://www.w3.org/2000/svg" p-id="880" width="32" height="32" xmlns:xlink="http://www.w3.org/1999/xlink"><path d="M174.622118 468.630588c238.652235-287.623529 487.604706-268.890353 724.630588 53.248a30.117647 30.117647 0 0 1 0 35.84c-235.339294 315.934118-483.809882 334.787765-724.028235 52.585412l-11.806118-14.095059a90.352941 90.352941 0 0 1-0.542118-113.543529l1.867294-2.108236z m654.034823 59.813647C618.736941 260.818824 419.478588 259.011765 210.040471 520.432941l-0.602353 0.602353-2.770824 4.216471a30.117647 30.117647 0 0 0 0 27.708235l3.192471 4.818824 11.38447 13.673411c206.727529 242.868706 402.793412 236.905412 607.653647-21.082353l8.432942-10.842353zM518.686118 404.178824a135.529412 135.529412 0 1 1 0 271.058823 135.529412 135.529412 0 0 1 0-271.058823z m0 67.764705a67.764706 67.764706 0 1 0 0 135.529412 67.764706 67.764706 0 0 0 0-135.529412z" p-id="881" fill="#333333"></path></svg>