<svg width="24" height="25" viewBox="0 0 24 25" fill="none" xmlns="http://www.w3.org/2000/svg">
  <path fill-rule="evenodd" clip-rule="evenodd" d="M0.333374 4C0.333374 1.79086 2.12424 0 4.33337 0H19.3334C21.5425 0 23.3334 1.79086 23.3334 4V21C23.3334 23.2091 21.5425 25 19.3334 25H4.33337C2.12424 25 0.333374 23.2091 0.333374 21V4ZM5.33337 8.5C5.33337 7.67157 6.00495 7 6.83337 7H16.8334C17.6618 7 18.3334 7.67157 18.3334 8.5C18.3334 9.32843 17.6618 10 16.8334 10H6.83337C6.00495 10 5.33337 9.32843 5.33337 8.5ZM6.83337 15C6.00495 15 5.33337 15.6716 5.33337 16.5C5.33337 17.3284 6.00495 18 6.83337 18H16.8334C17.6618 18 18.3334 17.3284 18.3334 16.5C18.3334 15.6716 17.6618 15 16.8334 15H6.83337Z" fill="white"/>
</svg>
