<svg width="25" height="26" viewBox="0 0 25 26" fill="none" xmlns="http://www.w3.org/2000/svg">
  <path d="M21.2845 0.254031C21.8158 -0.00468816 22.4334 -0.0664279 23.005 0.0717517C23.7431 0.248151 24.3923 0.777349 24.7283 1.47413C25.0127 2.04742 25.0701 2.72656 24.9179 3.34984C23.634 9.98246 22.3501 16.618 21.069 23.2506C21.0001 23.6622 20.8823 24.0709 20.6554 24.4207C20.4055 24.8235 20.0465 25.1528 19.63 25.3674C19.1417 25.6203 18.5759 25.7055 18.0359 25.6144C17.6884 25.5585 17.358 25.4233 17.0622 25.2322C15.8644 24.4501 14.6581 23.6799 13.4603 22.8978C12.389 23.8181 11.3233 24.7442 10.252 25.6673C10.0136 25.8702 9.70625 25.9936 9.39317 25.9995C9.08296 26.0083 8.77275 25.8937 8.53723 25.6849C8.23563 25.4203 8.06042 25.0176 8.04894 24.6118V21.2661C8.03745 20.193 8.04606 19.117 8.04319 18.0439C8.0317 17.8205 8.04319 17.5735 8.20404 17.403C10.3468 15.0922 12.4952 12.7872 14.638 10.4734C11.7714 12.799 8.90201 15.1274 6.03546 17.4559C5.94354 17.5324 5.84876 17.6088 5.73387 17.6441C5.56727 17.6941 5.38058 17.6735 5.23122 17.5823C3.86975 16.7033 2.51115 15.8183 1.14682 14.9422C0.7648 14.6776 0.45172 14.3072 0.253532 13.8809C0.0409824 13.4311 -0.0394417 12.9195 0.0180041 12.4256C0.0811946 11.8435 0.339701 11.2819 0.744694 10.8674C0.957244 10.644 1.21001 10.4617 1.48287 10.3235C1.99414 10.0912 2.48818 9.81782 2.99083 9.57086C9.09158 6.46035 15.1866 3.35572 21.2845 0.254031Z" fill="white"/>
</svg>
