<svg width="76" height="70" viewBox="0 0 76 70" fill="none" xmlns="http://www.w3.org/2000/svg">
    <g clip-path="url(#clip0_318_644)">
        <path d="M72.0476 67.0572H3.39094C1.54816 67.0572 0.0908203 65.6553 0.0908203 63.9734V13.3842C0.0908203 11.6626 1.59087 10.3004 3.39094 10.3004H72.0476C73.8904 10.3004 75.3477 11.7023 75.3477 13.3842V63.9734C75.3477 65.695 73.8477 67.0572 72.0476 67.0572Z" fill="#FFA000"/>
        <path d="M37.7193 23.5436H0.0908393V7.71797C0.0878661 6.90084 0.433791 6.11604 1.0526 5.53602C1.6714 4.95601 2.51246 4.62823 3.39096 4.62473H29.1481C30.6055 4.62473 31.891 5.50824 32.3191 6.83351L37.7193 23.5446V23.5436Z" fill="#FFA000"/>
        <path d="M66.9475 63.2734H8.49115C6.64024 63.2734 5.17578 61.897 5.17578 60.2463V19.0031C5.17578 17.3127 6.68194 15.9761 8.49115 15.9761H66.9475C68.7984 15.9761 70.2628 17.3524 70.2628 19.0031V60.2463C70.3045 61.897 68.7984 63.2734 66.9475 63.2734Z" fill="white"/>
        <path d="M72.0476 67.0572H3.39094C1.54816 67.0572 0.0908203 65.6799 0.0908203 64.0273V24.6816C0.0908203 22.9893 1.59087 21.6518 3.39094 21.6518H72.0476C73.8904 21.6518 75.3477 23.0291 75.3477 24.6816V64.0273C75.3477 65.7196 73.8477 67.0572 72.0476 67.0572Z" fill="#FFCA28"/>
        <path d="M26.8763 33.2027H7.92785C6.99324 33.2027 6.19287 32.5405 6.19287 31.6854C6.19287 30.8671 6.94951 30.1662 7.92785 30.1662H26.8316C27.7662 30.1662 28.5665 30.8284 28.5665 31.6854C28.5665 32.5027 27.8099 33.2046 26.8763 33.2046V33.2027ZM26.8763 43.4085H7.92785C6.99324 43.4085 6.19287 42.7463 6.19287 41.8893C6.19287 41.0323 6.94951 40.3701 7.92785 40.3701H26.8316C27.7662 40.3701 28.5665 41.0323 28.5665 41.8893C28.5665 42.7463 27.8099 43.4085 26.8763 43.4085Z" fill="#FFF8E1"/>
    </g>
    <defs>
        <clipPath id="clip0_318_644">
            <rect width="75.2569" height="70" fill="white" transform="translate(0.0908203)"/>
        </clipPath>
    </defs>
</svg>
